<svg width="49" height="48" viewBox="0 0 49 48" fill="none" xmlns="http://www.w3.org/2000/svg">
<path fill-rule="evenodd" clip-rule="evenodd" d="M44.5393 42.8478L48.8811 0.55475L48.9381 0H48.2982H0.639981H0.000244141L0.0570779 0.55475L4.39428 42.8547L4.43045 43.2074L4.82116 43.3017L24.2842 48H24.5963L44.1124 43.2948L44.5031 43.2006L44.5393 42.8478ZM24.5091 9.35787H38.7312L38.3031 13.6857L24.2728 19.1094L24.5091 20.0852H37.6761L36.1605 35.1871L24.4616 38.0077L12.7666 35.1919L12.0239 27.9593H16.8394L17.2253 31.6263L17.2627 31.9817L17.659 32.0733L24.3599 33.6214L24.6652 33.6194L31.2889 32.0184L31.6835 31.923L31.7181 31.5694L32.3803 24.7965L32.4344 24.2438H31.7951H24.5091H11.6283L11.1899 19.8972L24.7387 14.8546L25.7004 14.4962L25.4709 13.5164H24.5092H10.5724L10.148 9.35786H24.4486L24.5091 9.35787Z" fill="#1E152A"/>
</svg>
