<svg width="49" height="48" viewBox="0 0 49 48" fill="none" xmlns="http://www.w3.org/2000/svg">
<path d="M32.6255 24L34.0978 24.2865L34.1536 24L34.0978 23.7135L32.6255 24ZM32.6255 24C34.0978 24.2865 34.0978 24.2867 34.0977 24.287L34.0976 24.2875L34.0974 24.289L34.0966 24.293L34.0941 24.3054L34.0856 24.3475C34.0783 24.383 34.0678 24.4331 34.0542 24.4963C34.0268 24.6225 33.9866 24.8013 33.9334 25.0195C33.8274 25.4542 33.6679 26.0532 33.4539 26.7081C33.0541 27.9316 32.3677 29.6664 31.2863 30.7271C29.41 32.5674 27.1095 33.5 24.4692 33.5C21.8288 33.5 19.5283 32.5674 17.652 30.7271C16.5706 29.6664 15.8842 27.9316 15.4844 26.7081C15.2704 26.0532 15.1109 25.4542 15.0049 25.0195C14.9517 24.8013 14.9115 24.6225 14.8841 24.4963C14.8705 24.4331 14.86 24.383 14.8527 24.3475L14.8442 24.3054L14.8417 24.293L14.8409 24.289L14.8407 24.2875L14.8406 24.287C14.8405 24.2867 14.8405 24.2865 16.3128 24M32.6255 24C34.0978 23.7135 34.0978 23.7133 34.0977 23.713L34.0976 23.7125L34.0974 23.711L34.0966 23.707L34.0941 23.6946L34.0856 23.6525C34.0783 23.617 34.0678 23.5669 34.0542 23.5037C34.0268 23.3775 33.9866 23.1987 33.9334 22.9805C33.8274 22.5458 33.6679 21.9468 33.4539 21.2919C33.0541 20.0684 32.3677 18.3336 31.2863 17.2729C30.2084 16.2157 28.4482 15.5458 27.205 15.155C26.5394 14.9457 25.9307 14.7898 25.4889 14.6861C25.2672 14.6341 25.0855 14.5948 24.9574 14.5681C24.8933 14.5548 24.8425 14.5446 24.8066 14.5375L24.7641 14.5292L24.7516 14.5268L24.7476 14.5261L24.7462 14.5258L24.7456 14.5257C24.7454 14.5256 24.7451 14.5256 24.4692 16M16.3128 24C14.8405 23.7135 14.8405 23.7133 14.8406 23.713L14.8407 23.7125L14.8409 23.711L14.8417 23.707L14.8442 23.6946L14.8527 23.6525C14.86 23.617 14.8705 23.5669 14.8841 23.5037C14.9115 23.3775 14.9517 23.1987 15.0049 22.9805C15.1109 22.5458 15.2704 21.9468 15.4844 21.2919C15.8842 20.0684 16.5706 18.3336 17.652 17.2729C18.7299 16.2157 20.4901 15.5458 21.7333 15.155C22.3989 14.9457 23.0076 14.7898 23.4494 14.6861C23.6711 14.6341 23.8528 14.5948 23.9809 14.5681C24.045 14.5548 24.0958 14.5446 24.1317 14.5375L24.1742 14.5292L24.1867 14.5268L24.1907 14.5261L24.1921 14.5258L24.1927 14.5257C24.1929 14.5256 24.1932 14.5256 24.4692 16M16.3128 24L14.8405 24.2865L14.7847 24L14.8405 23.7135L16.3128 24ZM24.4692 16L24.7451 14.5256L24.4692 14.4739L24.1932 14.5256L24.4692 16ZM4.58816 9.8125C4.397 10.0833 4.30142 10.3229 4.30142 10.5312C4.30142 10.7812 4.40762 11.0312 4.62003 11.2812L5.80628 10.688C5.77501 10.7334 5.76456 10.7556 5.76449 10.7556C5.76447 10.7556 5.76514 10.7541 5.76632 10.7511C5.76925 10.7438 5.77665 10.724 5.7839 10.693L5.56428 10.5312L5.53497 10.5097L5.53133 10.507L4.58816 9.8125ZM4.58816 9.8125L5.54983 10.4913L5.5536 10.4939L5.60646 10.5312L5.79043 10.6611L11.5656 4.53125C11.2895 4.32292 11.0134 4.21875 10.7373 4.21875C10.27 4.21875 9.26636 4.96354 7.72643 6.45312C6.1865 7.94271 5.14041 9.0625 4.58816 9.8125ZM47.4785 27.3568L47.7139 27.5312L47.4785 27.3568ZM47.4785 27.3568L47.7138 27.5312L47.4785 27.3568ZM41.9315 28.0475L41.0431 28.1794L40.7399 29.0248C40.3544 30.0994 39.971 30.9696 39.5955 31.651L39.1398 32.4779L39.6882 33.2464C40.4389 34.2982 41.5525 35.7085 43.0139 37.4653C42.4865 38.1347 41.5507 39.1326 40.1531 40.4843C39.4075 41.2055 38.8297 41.7084 38.4073 42.0213C38.3038 42.098 38.2172 42.1575 38.1465 42.203L33.8893 38.9351L33.1363 38.3571L32.2916 38.7902C31.4325 39.2306 30.5451 39.5941 29.6285 39.881L28.7028 40.1708L28.5873 41.1339C28.2739 43.747 27.9965 45.5125 27.7628 46.5H21.2163L20.3758 41.0825L20.2337 40.1667L19.3511 39.884C18.3757 39.5716 17.493 39.2145 16.6995 38.8159L15.8727 38.4005L15.1305 38.953L10.7889 42.1845C8.35669 40.0193 6.80505 38.4669 6.03567 37.4872C6.34287 37.075 6.83 36.4541 7.50799 35.6137C8.27682 34.6606 8.86733 33.9051 9.27015 33.3564L9.83689 32.5843L9.37498 31.7453C8.8484 30.7889 8.45805 29.8591 8.19483 28.9555L7.92486 28.0287L6.96951 27.8905L1.50024 27.099V20.7656L7.00565 19.9527L7.93943 19.8148L8.21916 18.9133C8.48347 18.0615 8.85539 17.1974 9.34115 16.3208L9.8005 15.4917L9.24902 14.7209C8.40289 13.5383 7.29624 12.1353 5.93722 10.5169C6.44784 9.86811 7.37261 8.88231 8.76932 7.53126C9.52042 6.80472 10.1025 6.29762 10.528 5.98189C10.6228 5.91156 10.7034 5.85549 10.7709 5.81132L15.0544 9.06895L15.8062 9.64073L16.6467 9.20979C17.5058 8.76936 18.3932 8.40593 19.3098 8.119L20.2355 7.82923L20.351 6.86614C20.6645 4.25298 20.9418 2.48751 21.1755 1.5H27.722L28.5625 6.91747L28.7046 7.83333L29.5872 8.11602C30.5626 8.42842 31.4453 8.78546 32.2388 9.18411L33.0625 9.5979L33.8037 9.05004L38.1806 5.81521C40.6406 8.04909 42.1746 9.60299 42.8922 10.5268C42.5845 10.939 42.1007 11.5553 41.4303 12.3863C40.6615 13.3394 40.071 14.0949 39.6682 14.6436L39.1112 15.4023L39.5521 16.2339C40.0674 17.2059 40.4661 18.1441 40.7544 19.0491L41.0378 19.9386L41.961 20.0771L47.4381 20.8991V27.2301L41.9315 28.0475ZM37.9312 42.3233C37.9313 42.323 37.9364 42.3207 37.9461 42.3174C37.9359 42.322 37.931 42.3236 37.9312 42.3233ZM11.0088 5.67629C11.0087 5.67659 11.0035 5.67891 10.9936 5.68232C11.004 5.67769 11.0089 5.67598 11.0088 5.67629Z" stroke="#1E152A" stroke-width="3"/>
</svg>
