<svg width="31" height="31" viewBox="0 0 31 31" fill="none" xmlns="http://www.w3.org/2000/svg">
<path fill-rule="evenodd" clip-rule="evenodd" d="M15.0923 1.37141C7.47698 1.37141 1.31177 7.77175 1.31177 15.6537C1.31177 21.4412 4.63585 26.4216 9.42012 28.6618C9.92068 28.8967 10.4099 28.8035 10.7923 28.5043C11.0037 28.3325 11.1741 28.1119 11.2902 27.8599C11.4063 27.6078 11.4649 27.3312 11.4614 27.0515V26.3035L9.75466 26.062C9.74202 26.0602 9.72944 26.0581 9.71693 26.0555C8.77618 25.8639 8.14104 25.5187 7.6757 25.0213C7.28455 24.6027 7.04559 24.1014 6.8431 23.6762L6.77267 23.5279C6.58552 23.1205 6.38116 22.7221 6.16018 22.3336C5.99039 22.0528 5.85833 21.9084 5.72753 21.8179C5.3955 21.5882 5.07605 21.1984 5.07605 20.7116C5.07491 20.5714 5.10366 20.4328 5.16022 20.3057C5.21678 20.1786 5.29972 20.0662 5.40305 19.9766C5.59806 19.8155 5.8411 19.731 6.08975 19.7378C6.36895 19.7378 6.63181 19.827 6.85065 19.9294C7.07452 20.0344 7.29713 20.1735 7.50465 20.3178C8.01024 20.6696 8.50829 21.0856 8.92962 21.5987C9.36855 22.1315 9.6792 22.4701 10.1471 22.5397C10.5319 22.5974 10.9243 22.5987 11.2299 22.5843C11.2724 22.3318 11.3425 22.0852 11.4387 21.8494C11.0654 21.7585 10.6972 21.6463 10.3357 21.5134C9.51319 21.2089 8.59633 20.7352 7.98006 20.0173C7.30342 19.2273 6.88461 18.5225 6.65068 17.6984C6.42304 16.8952 6.3853 16.0251 6.3853 14.9543C6.3853 13.3138 7.06572 11.9319 7.57634 11.1983C7.38016 10.556 7.23916 9.89682 7.15501 9.22847C7.09928 8.80698 7.09971 8.37947 7.15627 7.95811C7.21915 7.57359 7.37637 7.10114 7.79015 6.81636C8.18883 6.53945 8.6567 6.55127 9.02143 6.62213C9.39999 6.69694 9.79365 6.86098 10.1559 7.04865C10.7457 7.35311 11.3318 7.75994 11.7707 8.10509C12.5279 7.87281 13.8673 7.57359 15.0785 7.54603H15.1061C16.3186 7.57359 17.5976 7.87281 18.3359 8.10378C18.7761 7.75994 19.3609 7.3518 19.9495 7.04865C20.3117 6.86098 20.7041 6.69694 21.084 6.62213C21.4487 6.55127 21.9165 6.53945 22.3165 6.81505C22.729 7.10114 22.8875 7.57359 22.9491 7.95811C23.0133 8.35838 22.9982 8.80589 22.9491 9.22847C22.8653 9.89678 22.7248 10.556 22.529 11.1983C23.0397 11.9332 23.7201 13.3151 23.7201 14.9543C23.7201 16.0251 23.6823 16.8952 23.456 17.6971C23.2208 18.5239 22.802 19.2273 22.1253 20.0173C21.5091 20.7352 20.5922 21.2089 19.7697 21.5134C19.3331 21.6735 18.8869 21.8037 18.434 21.9032C18.5887 22.3914 18.644 22.7864 18.644 23.0134V27.0686C18.644 27.6854 18.9195 28.2117 19.3106 28.5187C19.6904 28.8193 20.1784 28.9124 20.679 28.6841C25.5085 26.4636 28.8716 21.4701 28.8716 15.6524C28.8716 7.77175 22.7089 1.37141 15.0923 1.37141ZM11.9179 23.8979C11.5909 23.9465 11.9166 23.8979 11.9166 23.8979H11.9129L11.9028 23.9006L11.8663 23.9058C11.6795 23.9287 11.492 23.9449 11.3041 23.9544C10.9495 23.9714 10.4627 23.9727 9.96344 23.8979C8.9686 23.751 8.36365 23.016 7.97251 22.5383L7.93478 22.4937C7.8069 22.3389 7.66952 22.1929 7.52352 22.0567C7.65306 22.3061 7.78763 22.5843 7.93227 22.8835L7.94484 22.9097L8.00898 23.0462C8.22908 23.5029 8.37372 23.8074 8.61393 24.062C8.84787 24.3113 9.2126 24.5528 9.9496 24.705L12.2059 25.0239C12.3635 25.0462 12.508 25.1274 12.6125 25.2524C12.7171 25.3774 12.7746 25.5378 12.7744 25.7037V27.0515C12.7744 28.1014 12.3027 29.0371 11.5796 29.6041C11.1999 29.9068 10.7482 30.0956 10.2733 30.1502C9.79829 30.2048 9.31806 30.123 8.88434 29.9138C3.64982 27.4636 0 22.0082 0 15.6537C0 7.00272 6.76261 0 15.0923 0C23.422 0 30.1846 7.00272 30.1846 15.6537C30.1846 22.041 26.4883 27.5109 21.2085 29.94C20.7744 30.1453 20.295 30.2236 19.8216 30.1665C19.3482 30.1094 18.8985 29.9191 18.5208 29.6159C18.1473 29.3158 17.8455 28.9296 17.639 28.4874C17.4326 28.0452 17.3272 27.5591 17.331 27.0673V23.0121C17.331 22.9202 17.2694 22.3901 16.926 21.6774C16.8786 21.5786 16.8548 21.4694 16.8564 21.3589C16.8581 21.2484 16.8852 21.14 16.9356 21.0427C16.9859 20.9455 17.058 20.8624 17.1456 20.8004C17.2333 20.7384 17.334 20.6994 17.4392 20.6866C17.8706 20.6367 18.5975 20.4911 19.3307 20.2194C20.0778 19.9438 20.7481 19.5659 21.1468 19.1013C21.7392 18.411 22.0348 17.8808 22.197 17.3073C22.3655 16.7128 22.4083 16.0212 22.4083 14.9543C22.4083 13.4569 21.6537 12.1983 21.3066 11.7928C21.2278 11.7012 21.1741 11.5891 21.151 11.4683C21.128 11.3476 21.1366 11.2226 21.1758 11.1064C21.3518 10.5894 21.5657 9.7849 21.6474 9.06705C21.6876 8.70615 21.6902 8.40431 21.6549 8.18646C21.6471 8.10681 21.624 8.02961 21.587 7.95942C21.5004 7.94378 21.4116 7.94781 21.3267 7.97123C21.1129 8.01323 20.84 8.11822 20.5306 8.27832C19.9143 8.59591 19.2729 9.06573 18.8754 9.4017C18.7878 9.47589 18.6832 9.52516 18.572 9.54471C18.4607 9.56426 18.3464 9.55342 18.2403 9.51325C17.222 9.16567 16.1628 8.96563 15.0923 8.91875C13.8258 8.95025 12.3644 9.32558 11.8651 9.51325C11.759 9.55342 11.6447 9.56426 11.5334 9.54471C11.4221 9.52516 11.3176 9.47589 11.2299 9.4017C10.716 8.96993 10.1614 8.59355 9.57481 8.27832C9.32291 8.14029 9.05487 8.03706 8.77744 7.97123C8.69288 7.948 8.60453 7.94398 8.51835 7.95942C8.48138 8.0296 8.45829 8.1068 8.45043 8.18646C8.41522 8.40431 8.41774 8.70615 8.45798 9.06705C8.53973 9.7849 8.7548 10.5894 8.92962 11.1064C9.00885 11.3427 8.9598 11.6051 8.79882 11.7928C8.45169 12.1983 7.69708 13.4569 7.69708 14.9543C7.69708 16.0199 7.73984 16.7128 7.90837 17.3073C8.07187 17.8808 8.36617 18.4097 8.95728 19.1013C9.35723 19.5659 10.0263 19.9438 10.7747 20.2194C11.3869 20.4455 12.0206 20.6021 12.665 20.6866C12.7975 20.7015 12.9226 20.7581 13.0236 20.8489C13.1246 20.9398 13.1967 21.0605 13.2302 21.1952C13.2638 21.3298 13.2573 21.4719 13.2116 21.6026C13.1659 21.7333 13.0832 21.8464 12.9744 21.9268C12.7668 22.0816 12.6297 22.3599 12.553 22.6814C12.5134 22.8469 12.4898 23.0162 12.4826 23.1866V23.2116C12.4842 23.378 12.4278 23.5393 12.3239 23.6656C12.2201 23.7918 12.0758 23.8744 11.9179 23.8979Z" fill="white" fill-opacity="0.75"/>
</svg>
