<svg width="49" height="48" viewBox="0 0 49 48" fill="none" xmlns="http://www.w3.org/2000/svg">
<path d="M3.11015 11.2707C-1.22417 17.6119 -0.687232 25.8596 2.62629 32.5938C2.70183 32.758 2.78554 32.914 2.8672 33.0699C2.91416 33.178 2.96724 33.2778 3.02441 33.3797C3.05095 33.4379 3.0877 33.4982 3.12036 33.5522C3.17344 33.6604 3.23061 33.7643 3.28573 33.8683L3.60626 34.4192C3.66547 34.5211 3.72263 34.6209 3.79001 34.7228C3.9023 34.9182 4.035 35.1116 4.15137 35.307C4.20445 35.3881 4.25345 35.4692 4.31266 35.5502C4.51066 35.867 4.72182 36.1749 4.94556 36.4734C5.1048 36.6958 5.26405 36.912 5.43554 37.1283C5.49066 37.2073 5.55191 37.2863 5.60908 37.3653L6.06027 37.9246C6.1154 37.989 6.17052 38.0639 6.22973 38.1304C6.4298 38.3757 6.64213 38.6148 6.85446 38.856C6.85446 38.8601 6.86058 38.8643 6.86466 38.8705C7.12322 39.2035 7.41315 39.5099 7.7303 39.7853C7.89363 39.9558 8.05696 40.1263 8.2305 40.2926L8.4367 40.4943C8.66332 40.7105 8.88994 40.9268 9.1288 41.1347C9.13289 41.1347 9.13493 41.1388 9.13901 41.1409L9.25538 41.2448C9.46363 41.4299 9.67391 41.6149 9.88828 41.7854L10.1435 42.0037C10.317 42.1451 10.4967 42.2802 10.6743 42.4195L10.952 42.6357C11.1418 42.7813 11.3439 42.9247 11.5379 43.0661C11.6094 43.1181 11.6808 43.1701 11.7543 43.2179L11.8135 43.2657L12.3872 43.6503L12.6322 43.8167C12.9323 44.0121 13.2304 44.1971 13.5264 44.3801C13.6122 44.4238 13.6979 44.4716 13.7775 44.5215C13.998 44.6504 14.2267 44.7814 14.4492 44.902C14.5717 44.9726 14.6983 45.0329 14.8249 45.0974C14.978 45.1847 15.1372 45.2699 15.3006 45.3573C15.3401 45.3695 15.3783 45.3856 15.4149 45.4051C15.4823 45.4363 15.5456 45.4695 15.6109 45.5028C15.8559 45.6276 16.1111 45.7461 16.3765 45.8646C16.4255 45.8854 16.4786 45.9062 16.5317 45.9353C16.8257 46.0662 17.1196 46.191 17.4238 46.3137C17.4933 46.3344 17.5668 46.3698 17.6382 46.3968C17.9138 46.5028 18.1976 46.611 18.4773 46.7128L18.5794 46.7503C18.8918 46.8584 19.2 46.9623 19.5165 47.0621C19.59 47.0829 19.6655 47.1099 19.7431 47.1307C20.0677 47.2305 20.3821 47.349 20.7088 47.4135C41.6557 51.3014 47.7437 34.5876 47.7437 34.5876C42.6295 41.3696 33.5546 43.1576 24.9594 41.1679C24.6409 41.0931 24.3224 40.9891 24.0019 40.8935C23.6134 40.7767 23.2274 40.6512 22.8443 40.5172L22.7177 40.4673C22.4401 40.3716 22.1726 40.2656 21.9011 40.1596C21.8273 40.1284 21.7524 40.1 21.6765 40.0743C21.3764 39.9517 21.0844 39.8248 20.7945 39.6939C20.7312 39.6731 20.6782 39.644 20.6149 39.619C20.3682 39.5033 20.1225 39.3855 19.8779 39.2656C19.8023 39.2323 19.7349 39.197 19.6614 39.1575C19.4695 39.066 19.2776 38.962 19.0898 38.8622C18.9608 38.7992 18.8335 38.7326 18.708 38.6626C18.4773 38.5379 18.2466 38.4027 18.0159 38.2738C17.9465 38.2239 17.8669 38.1824 17.7872 38.1366C17.4862 37.9551 17.1881 37.7687 16.893 37.5773C16.8109 37.5254 16.7306 37.4706 16.6521 37.4131C16.4355 37.2771 16.223 37.1343 16.0151 36.9848C15.9437 36.937 15.8784 36.885 15.8049 36.833C15.6021 36.69 15.4019 36.543 15.2046 36.3923C15.1189 36.3216 15.027 36.2551 14.9351 36.1844C14.7555 36.0409 14.5738 35.9037 14.3941 35.7519L14.1532 35.5565C13.922 35.3665 13.6946 35.1717 13.4713 34.9723C13.4481 34.9491 13.4228 34.9283 13.3958 34.9099L12.6873 34.2529L12.4832 34.0575C12.3158 33.8849 12.1443 33.7186 11.9728 33.5481L11.7747 33.3402C11.5591 33.1216 11.3487 32.8977 11.1439 32.6686L11.1132 32.6354C10.8968 32.3942 10.6865 32.1489 10.4742 31.8994C10.4191 31.8349 10.3681 31.7663 10.3109 31.6977L9.84949 31.1218C9.61408 30.8144 9.38268 30.5039 9.15535 30.1904C4.3882 23.5622 2.66304 14.4143 6.4788 6.91087L3.11015 11.2707ZM16.5582 5.92954C13.4162 10.5222 13.5938 16.6638 16.0396 21.5206C16.4438 22.3381 16.9058 23.1247 17.4218 23.8741C17.8914 24.5602 18.4099 25.371 19.0388 25.9241C19.2572 26.1777 19.494 26.4231 19.7411 26.6705L19.9248 26.8576C20.1576 27.0863 20.3964 27.3108 20.6394 27.5333L20.67 27.5603C20.9453 27.8051 21.2272 28.0422 21.5152 28.2714C21.5846 28.3192 21.6438 28.3753 21.7112 28.4231C21.997 28.6477 22.2849 28.8639 22.583 29.0781L22.6136 29.0968C22.7402 29.1903 22.8749 29.2756 23.0178 29.367C23.075 29.4045 23.1403 29.4544 23.2016 29.4918C23.418 29.6332 23.6303 29.7662 23.8488 29.9014C23.8835 29.9159 23.9141 29.9346 23.9468 29.9492C24.1305 30.0635 24.3306 30.1737 24.5225 30.2756C24.5899 30.3172 24.6552 30.3484 24.7246 30.3879C24.8614 30.4565 24.9962 30.5293 25.1268 30.5999L25.1922 30.6291C25.4678 30.7663 25.7495 30.8952 26.0251 31.0241C26.0945 31.0511 26.1537 31.074 26.213 31.1031C26.4396 31.2029 26.6703 31.2985 26.8969 31.3879C26.999 31.4233 27.0949 31.4648 27.1909 31.496C27.3991 31.575 27.6176 31.6478 27.8238 31.7206L28.1096 31.8141C28.4077 31.9077 28.7098 32.0303 29.0242 32.0823C45.1938 34.8122 48.9381 22.1298 48.9381 22.1298C45.5674 27.0697 39.0444 29.4232 32.0928 27.5853C31.7854 27.5042 31.4804 27.4141 31.1781 27.315C31.0801 27.288 30.9944 27.2568 30.9005 27.2277C30.6882 27.1528 30.4697 27.0801 30.2635 27.001L29.9695 26.8888C29.7408 26.7952 29.5081 26.7079 29.2856 26.6081C29.2162 26.5769 29.1529 26.5561 29.0998 26.5249C28.814 26.394 28.5261 26.2651 28.2484 26.1258L27.8279 25.9033L27.5849 25.7785C27.3971 25.6788 27.2235 25.5748 27.0439 25.4667C27.0004 25.4456 26.9581 25.422 26.9173 25.396C26.7009 25.2588 26.4763 25.1257 26.2701 24.9843C26.2007 24.9448 26.1374 24.897 26.0721 24.8554L25.6474 24.5727C25.3534 24.3648 25.0656 24.1402 24.7757 23.924C24.7103 23.8637 24.647 23.8138 24.5838 23.7598C21.5275 21.3127 19.1163 17.9674 17.973 14.1793C16.7685 10.2416 17.0339 5.82559 19.1143 2.24125L16.5582 5.92954ZM27.8667 1.93563C26.0129 4.70496 25.8353 8.14377 27.1113 11.1979C28.4669 14.4413 31.2394 16.9882 34.4692 18.1941C34.6019 18.246 34.7305 18.2897 34.8673 18.3396L35.047 18.3957C35.2348 18.456 35.4247 18.5267 35.6186 18.5704C44.5527 20.3251 46.97 13.8987 47.6212 12.9548C45.4939 16.0651 41.9272 16.8115 37.552 15.7283C37.1951 15.6374 36.8434 15.5264 36.4986 15.3956C36.0699 15.2422 35.6494 15.0659 35.2389 14.8675C34.462 14.484 33.7235 14.0245 33.034 13.4953C29.1141 10.4723 26.6866 4.70081 29.2427 0" fill="#000000"/>
</svg>
