<?xml version="1.0" encoding="utf-8"?>
<svg viewBox="227.252 179.959 48.938 48" xmlns="http://www.w3.org/2000/svg">
  <path d="M 227.252 179.959 L 276.19 179.959 L 276.19 227.959 L 227.252 227.959 Z M 262.518 220.804 C 260.099 220.804 257.716 220.037 256.228 219.27 L 255.074 223.834 C 256.488 224.601 259.317 225.367 262.183 225.367 C 269.068 225.367 272.269 221.863 272.269 217.737 C 272.269 214.233 270.222 211.969 265.793 210.363 C 262.518 209.122 261.141 208.428 261.141 206.858 C 261.141 205.617 262.332 204.485 264.788 204.485 C 267.207 204.485 269.031 205.179 269.999 205.654 L 271.264 201.2 C 269.776 200.506 267.729 199.959 264.863 199.959 C 258.982 199.959 255.372 203.135 255.372 207.333 C 255.372 210.947 258.126 213.21 262.294 214.671 C 265.309 215.693 266.5 216.606 266.5 218.102 C 266.5 219.745 265.123 220.804 262.518 220.804 Z M 251.316 200.36 L 245.658 200.36 L 245.658 215.875 C 245.658 219.672 244.169 220.731 241.787 220.731 C 240.671 220.731 239.666 220.548 238.884 220.293 L 238.252 224.783 C 239.368 225.148 241.08 225.367 242.42 225.367 C 247.892 225.367 251.316 222.921 251.316 215.912 Z" fill="#000000"/>
</svg>