<svg width="49" height="48" viewBox="0 0 49 48" fill="none" xmlns="http://www.w3.org/2000/svg">
<rect x="0.000244141" width="48.9378" height="48" fill="#1E152A"/>
<path fill-rule="evenodd" clip-rule="evenodd" d="M35.2664 40.8452C32.8472 40.8452 30.4651 40.0785 28.9763 39.3119L27.8226 43.8754C29.2367 44.642 32.0655 45.4087 34.9315 45.4087C41.8171 45.4087 45.018 41.904 45.018 37.7788C45.018 34.2742 42.9709 32.0108 38.5419 30.4045C35.2664 29.1631 33.8893 28.4696 33.8893 26.8998C33.8893 25.6585 35.0804 24.5268 37.537 24.5268C39.956 24.5268 41.7799 25.2206 42.7475 25.695L44.0131 21.2413C42.5242 20.5478 40.4773 20 37.6113 20C31.7306 20 28.1203 23.1761 28.1203 27.3744C28.1203 30.9885 30.8745 33.2519 35.0431 34.7122C38.058 35.7344 39.249 36.647 39.249 38.1438C39.249 39.7866 37.8719 40.8452 35.2664 40.8452ZM24.0643 20.4015H18.407V35.9169C18.407 39.7136 16.9181 40.7723 14.5361 40.7723C13.4196 40.7723 12.4146 40.5898 11.633 40.3343L11.0002 44.8245C12.117 45.1896 13.829 45.4086 15.1689 45.4086C20.6403 45.4086 24.0643 42.9626 24.0643 35.9533V20.4015Z" fill="#FD9E48"/>
</svg>
