<svg width="31" height="31" viewBox="0 0 31 31" fill="none" xmlns="http://www.w3.org/2000/svg">
<path d="M28.3239 0H2.99147C1.65203 0 0.565384 1.08665 0.565384 2.42609V27.7585C0.565384 29.098 1.65203 30.1846 2.99147 30.1846H28.3239C29.6634 30.1846 30.75 29.098 30.75 27.7585V2.42609C30.75 1.08665 29.6634 0 28.3239 0ZM28.3239 27.7698C11.4281 27.7661 2.98015 27.7623 2.98015 27.7585C2.98393 10.8627 2.9877 2.41477 2.99147 2.41477C19.8873 2.41854 28.3352 2.42232 28.3352 2.42609C28.3315 19.3219 28.3277 27.7698 28.3239 27.7698ZM5.04025 11.3155H9.5189V25.7211H5.04025V11.3155ZM7.28146 9.34591C8.71146 9.34591 9.87734 8.1838 9.87734 6.75003C9.87734 6.40914 9.81019 6.07158 9.67974 5.75664C9.54928 5.44169 9.35807 5.15552 9.11702 4.91447C8.87597 4.67342 8.58981 4.48221 8.27486 4.35176C7.95991 4.2213 7.62236 4.15416 7.28146 4.15416C6.94057 4.15416 6.60301 4.2213 6.28806 4.35176C5.97312 4.48221 5.68695 4.67342 5.4459 4.91447C5.20485 5.15552 5.01364 5.44169 4.88318 5.75664C4.75273 6.07158 4.68558 6.40914 4.68558 6.75003C4.68181 8.1838 5.84392 9.34591 7.28146 9.34591ZM16.8009 18.5937C16.8009 16.7147 17.1594 14.8961 19.4874 14.8961C21.7814 14.8961 21.8154 17.043 21.8154 18.7145V25.7211H26.2902V17.8202C26.2902 13.9415 25.4526 10.957 20.9211 10.957C18.7441 10.957 17.2839 12.1531 16.684 13.285H16.6236V11.3155H12.3261V25.7211H16.8009V18.5937Z" fill="white" fill-opacity="0.75"/>
</svg>
