<svg width="83" height="83" viewBox="0 0 83 83" fill="none" xmlns="http://www.w3.org/2000/svg">
<path d="M41.5 0.398908C25.337 0.179673 9.76337 10.5818 3.63256 25.5124C-2.77112 40.1823 0.556153 58.4058 11.7578 69.847C22.5313 81.4438 40.2819 85.7002 55.148 80.2742C70.5549 75.0278 81.9292 59.8973 82.5475 43.6125C83.5846 27.6106 74.1702 11.646 59.7551 4.67564C54.1106 1.85882 47.8074 0.389888 41.5 0.398908ZM41.5 4.84227C57.4642 4.5646 72.6472 16.0322 76.769 31.4549C81.0804 45.9806 75.2487 62.7985 62.7321 71.4017C49.7303 80.9583 30.4494 80.2669 18.1714 69.7953C5.80043 59.9319 1.37222 41.6877 7.71934 27.2198C13.2206 13.8447 27.0297 4.67249 41.5 4.84227ZM22.8546 27.279V55.7209H60.1454V27.279H22.8546V27.279ZM31.1385 31.7226H51.8585C48.1885 33.9809 44.5181 38.9385 40.8485 39.4794C37.612 36.8937 34.3752 34.3081 31.1385 31.7226H31.1385ZM55.7075 34.3385V51.2774H27.2925V34.3398C32.0269 38.1235 36.7612 41.9073 41.4958 45.6907C46.2332 41.9069 50.9703 38.1226 55.7075 34.3385Z" fill="white"/>
</svg>
