<svg width="48" height="48" viewBox="0 0 48 48" fill="none" xmlns="http://www.w3.org/2000/svg">
<path d="M24.0002 0C37.2542 0 48.0002 10.746 48.0002 24C48.0002 37.254 37.2542 48 24.0002 48C10.7462 48 0.000244141 37.254 0.000244141 24C0.000244141 10.746 10.7462 0 24.0002 0ZM19.2302 31.996C19.5802 33.286 19.5422 34.492 19.1822 35.58L19.0522 35.94C19.0042 36.062 18.9482 36.18 18.8962 36.292C18.6162 36.872 18.2442 37.412 17.7862 37.912C16.3902 39.43 14.4422 40.006 13.6062 39.522C12.7062 38.998 13.1542 36.852 14.7742 35.142C16.5162 33.306 19.0142 32.124 19.0142 32.124V32.118L19.2302 31.996ZM39.0522 10.274C37.9682 6.008 30.8982 4.606 24.2082 6.984C20.2302 8.398 15.9202 10.62 12.8222 13.518C9.13624 16.96 8.55024 19.96 8.79224 21.214C9.64624 25.636 15.7062 28.528 18.1982 30.674V30.686C17.4642 31.046 12.0862 33.744 10.8262 36.536C9.47624 39.476 11.0362 41.578 12.0562 41.846C15.2062 42.718 18.4462 41.126 20.1862 38.548C21.8662 36.026 21.7182 32.786 20.9942 31.196C21.9862 30.926 23.1542 30.806 24.6542 30.988C28.8562 31.468 29.6962 34.108 29.5142 35.188C29.3342 36.266 28.4682 36.896 28.1662 37.076C27.8662 37.258 27.7762 37.316 27.8042 37.438C27.8342 37.618 27.9862 37.618 28.2242 37.588C28.5542 37.528 30.4162 36.688 30.5062 34.646C30.5962 32.066 28.1342 29.188 23.7562 29.246C21.9562 29.278 20.8142 29.428 20.0062 29.758C19.9462 29.668 19.8842 29.608 19.7962 29.548C17.0962 26.638 12.0862 24.598 12.2962 20.728C12.3562 19.318 12.8662 15.6 21.8962 11.1C29.3062 7.408 35.2182 8.43 36.2382 10.68C37.7042 13.888 33.0862 19.86 25.3762 20.728C22.4362 21.058 20.9062 19.92 20.5142 19.498C20.0962 19.048 20.0362 19.018 19.8862 19.11C19.6462 19.23 19.7962 19.62 19.8862 19.86C20.1262 20.46 21.0562 21.51 22.6782 22.05C24.0862 22.5 27.5382 22.768 31.6782 21.15C36.3262 19.352 39.9562 14.34 38.9062 10.14L39.0522 10.274Z" fill="#1E152A"/>
</svg>
