<svg width="49" height="48" viewBox="0 0 49 48" fill="none" xmlns="http://www.w3.org/2000/svg">
<path d="M3.47942 24C3.47942 32.148 8.30591 39.1912 15.3094 42.528L5.29623 15.621C4.1309 18.1815 3.47942 21.0142 3.47942 24ZM38.6397 22.9613C38.6397 20.415 37.7068 18.654 36.9093 17.283C35.8434 15.5873 34.847 14.1525 34.847 12.4545C34.847 10.5638 36.309 8.80125 38.3728 8.80125C38.4638 8.80125 38.551 8.8125 38.6435 8.817C34.9082 5.4615 29.9349 3.414 24.4684 3.414C17.1346 3.414 10.6855 7.1025 6.92953 12.6923C7.4235 12.7073 7.88688 12.717 8.28297 12.717C10.4768 12.717 13.8756 12.4537 13.8756 12.4537C15.0066 12.3892 15.1419 14.0205 14.0102 14.1525C14.0102 14.1525 12.8732 14.2823 11.6069 14.3483L19.2519 36.648L23.8452 23.1353L20.5763 14.3475C19.4454 14.2815 18.3749 14.1517 18.3749 14.1517C17.2424 14.085 17.3747 12.3885 18.5079 12.453C18.5079 12.453 21.9733 12.7162 24.0356 12.7162C26.2317 12.7162 29.6298 12.453 29.6298 12.453C30.7607 12.3885 30.8953 14.0197 29.7644 14.1517C29.7644 14.1517 28.6258 14.2815 27.3626 14.3475L34.948 36.4785L37.0423 29.6183C38.1045 26.9408 38.6397 24.7245 38.6397 22.9613ZM24.8377 25.7985L18.5393 43.7497C20.4203 44.2943 22.4092 44.5882 24.4684 44.5882C26.9122 44.5882 29.2574 44.1735 31.439 43.422C31.3832 43.3343 31.3312 43.2412 31.2899 43.1362L24.8377 25.7985ZM42.8889 14.1225C42.9776 14.7787 43.0303 15.4815 43.0303 16.2397C43.0303 18.3293 42.632 20.6775 41.4338 23.6138L35.0221 41.7952C41.264 38.226 45.4597 31.5945 45.4597 23.9993C45.4597 20.4195 44.526 17.0557 42.8889 14.1225ZM0.000244141 24C0.000244141 37.2345 10.9776 48 24.4684 48C37.9599 48 48.9381 37.2345 48.9381 24C48.9381 10.7662 37.9599 0 24.4684 0C10.9776 0 0.000244141 10.7662 0.000244141 24ZM1.12276 24C1.12276 11.3745 11.5962 1.10325 24.4684 1.10325C37.3429 1.10325 47.8163 11.3745 47.8163 24C47.8163 36.6263 37.3429 46.8997 24.4684 46.8997C11.5962 46.8997 1.12276 36.6263 1.12276 24Z" fill="#1E152A"/>
</svg>
